<svg xmlns="http://www.w3.org/2000/svg" viewBox="0 0 800 800" width="800" height="800">
<rect width="800" height="800" fill="#ff3b30"/>
<svg x="64" y="64" width="672" height="672" viewBox="0 0 672 672" overflow="hidden">
<rect width="672" height="672" fill="#ffd400"/>
<rect x="40" y="40" width="592" height="592" rx="36" fill="#0b0b0f"/><circle cx="130" cy="140" r="54" fill="#2aa7ff"/><circle cx="130" cy="140" r="40" fill="#1c1a4d"/><rect x="210" y="104" width="220" height="24" rx="12" fill="#ffffff"/><rect x="210" y="146" width="150" height="16" rx="8" fill="#ffffff" opacity=".45"/><rect x="210" y="172" width="260" height="16" rx="8" fill="#ffffff" opacity=".25"/><rect x="76" y="236" width="168" height="168" rx="10" fill="#ffd400"/><circle cx="140.96939000859857" cy="342.51582343280313" r="33.945826648212964" fill="#2aa7ff"/><rect x="252" y="236" width="168" height="168" rx="10" fill="#ff3b30"/><circle cx="352.290380077064" cy="298.5584007635713" r="22.842010690011083" fill="#ff3b30"/><rect x="428" y="236" width="168" height="168" rx="10" fill="#ffd400"/><circle cx="492.3466821074486" cy="331.351983076334" r="31.449832331053912" fill="#ff3b30"/><rect x="76" y="412" width="168" height="168" rx="10" fill="#1c1a4d"/><circle cx="178.2928305000067" cy="491.14550614729524" r="26.896455656848847" fill="#ff3b30"/><rect x="252" y="412" width="168" height="168" rx="10" fill="#ff3b30"/><circle cx="360.283098616451" cy="467.07371475994586" r="40.75101815834641" fill="#ff3b30"/><rect x="428" y="412" width="168" height="168" rx="10" fill="#2aa7ff"/><circle cx="508.8539712138474" cy="524.3500961147249" r="20.961233051978052" fill="#2aa7ff"/>
</svg>
</svg>
