<svg xmlns="http://www.w3.org/2000/svg" viewBox="0 0 800 800" width="800" height="800">
<rect width="800" height="800" fill="#ff4fa3"/>
<svg x="64" y="64" width="672" height="672" viewBox="0 0 672 672" overflow="hidden">
<rect width="672" height="672" fill="#ffd400"/>
<rect x="40" y="40" width="592" height="592" rx="36" fill="#0b0b0f"/><circle cx="130" cy="140" r="54" fill="#00a36c"/><circle cx="130" cy="140" r="40" fill="#1c1a4d"/><rect x="210" y="104" width="220" height="24" rx="12" fill="#ffffff"/><rect x="210" y="146" width="150" height="16" rx="8" fill="#ffffff" opacity=".45"/><rect x="210" y="172" width="260" height="16" rx="8" fill="#ffffff" opacity=".25"/><rect x="76" y="236" width="168" height="168" rx="10" fill="#1c1a4d"/><circle cx="134.83565610647202" cy="299.23685307726265" r="32.212944527640936" fill="#ffd400"/><rect x="252" y="236" width="168" height="168" rx="10" fill="#ff4fa3"/><circle cx="341.5821745857596" cy="290.9635679110885" r="45.12320922207087" fill="#00a36c"/><rect x="428" y="236" width="168" height="168" rx="10" fill="#ffd400"/><circle cx="523.9003193967044" cy="327.25669217556714" r="31.923129828236995" fill="#00a36c"/><rect x="76" y="412" width="168" height="168" rx="10" fill="#ff4fa3"/><circle cx="137.1804932616651" cy="482.2349318675697" r="50.01515179675072" fill="#ff4fa3"/><rect x="252" y="412" width="168" height="168" rx="10" fill="#1c1a4d"/><circle cx="314.5005729787052" cy="509.38334412947296" r="36.150956468805674" fill="#ffd400"/><rect x="428" y="412" width="168" height="168" rx="10" fill="#00a36c"/><circle cx="492.6253069445491" cy="488.71996225714685" r="27.47290709964931" fill="#ffd400"/>
</svg>
</svg>
